<svg version="1.1" id="Layer_1" xmlns="http://www.w3.org/2000/svg" xmlns:xlink="http://www.w3.org/1999/xlink" x="0px" y="0px"
	 width="100%" viewBox="0 0 938 925" enable-background="new 0 0 938 925" xml:space="preserve">
<path fill="#000000" opacity="1.000000" stroke="none" 
	d="
M1.000000,333.000000 
	C1.000000,222.000000 1.000000,111.500000 1.000000,1.000000 
	C313.666656,1.000000 626.333313,1.000000 939.000000,1.000000 
	C939.000000,309.333344 939.000000,617.666687 939.000000,926.000000 
	C626.333313,926.000000 313.666656,926.000000 1.000000,926.000000 
	C1.000000,728.500000 1.000000,531.000000 1.000000,333.000000 
M429.704071,662.691528 
	C429.831421,662.818481 429.958740,662.945435 430.013367,663.876587 
	C429.508636,665.583618 429.007538,667.291687 428.498596,668.997437 
	C426.067169,677.147156 428.681732,685.967712 435.269531,687.392822 
	C441.237030,688.683716 448.209045,689.058411 453.884216,687.212158 
	C466.446716,683.125427 476.844421,674.805298 486.979858,666.463745 
	C493.146851,661.388184 499.046051,655.987244 505.065521,650.732483 
	C504.914917,650.205566 504.764343,649.678711 504.613739,649.151794 
	C502.862793,649.151794 500.648651,648.457520 499.436981,649.265869 
	C492.238220,654.068665 485.598206,659.781433 478.145203,664.112488 
	C468.530670,669.699524 458.354675,674.329224 448.337677,679.201050 
	C447.326904,679.692688 445.746460,679.013062 444.430389,678.876953 
	C444.736023,677.565735 444.693054,676.008423 445.412445,674.989319 
	C447.588257,671.907349 449.762054,668.722839 452.468323,666.134216 
	C463.435730,655.643738 475.084839,645.822815 485.556030,634.869263 
	C495.499390,624.467773 505.141022,613.550720 513.290894,601.739563 
	C518.977112,593.498779 519.352539,585.592896 511.695770,580.421509 
	C504.013489,575.232971 495.001343,575.674377 485.907806,575.001099 
	C486.077942,576.925049 486.174438,578.227356 486.312683,579.525208 
	C486.484985,581.143311 487.192108,582.908203 486.762390,584.337341 
	C486.167664,586.315063 484.966217,588.239929 483.612946,589.839233 
	C473.770844,601.470215 464.233246,613.397888 453.799164,624.478271 
	C443.128510,635.809937 431.794952,646.556580 420.271667,657.031433 
	C413.258759,663.406372 405.429016,668.906433 397.770508,674.533081 
	C395.434662,676.249146 392.447723,677.079041 389.758972,678.314758 
	C392.016815,674.146484 394.705475,670.799744 397.748779,667.814514 
	C405.066589,660.636230 412.686829,653.763550 419.930817,646.513489 
	C427.758545,638.679077 435.674255,630.876770 442.841217,622.455872 
	C448.421936,615.898743 453.386902,608.691162 457.732513,601.251038 
	C460.940002,595.759460 462.734131,589.386963 459.950256,582.897644 
	C456.059357,573.827698 447.349121,573.907776 439.567383,571.803467 
	C437.357941,582.292542 430.476898,589.416992 424.455872,596.938721 
	C412.236450,612.203613 399.471832,627.033081 387.300873,642.335449 
	C380.198059,651.265686 374.104034,660.916321 371.303894,672.241821 
	C370.014374,677.457397 372.556427,683.778992 377.083832,686.555298 
	C383.814575,690.682617 390.765533,689.251892 396.566528,685.533203 
	C407.823639,678.316772 418.442932,670.105408 429.704071,662.691528 
M246.296936,322.309174 
	C246.169800,322.182465 246.042664,322.055756 246.011002,321.176697 
	C246.388199,320.273010 246.753113,319.364014 247.144455,318.466461 
	C251.418594,308.664001 248.408783,303.658691 237.880569,304.120819 
	C231.278900,304.410553 224.728516,305.868591 219.522675,306.608154 
	C218.581451,310.644440 218.675674,314.005280 217.135162,316.238464 
	C206.784271,331.243896 196.166977,346.068298 185.481125,360.839294 
	C170.206924,381.952698 154.241028,402.590790 139.618500,424.142914 
	C126.813210,443.016602 114.653572,462.460114 111.443184,485.921417 
	C110.236206,494.741913 112.523903,501.924500 119.932091,509.474457 
	C120.496902,506.502197 120.890755,504.825867 121.121063,503.127350 
	C121.492035,500.391388 121.055840,497.302673 122.189812,494.957306 
	C126.216064,486.629883 130.094986,478.102356 135.253479,470.478668 
	C145.304077,455.624908 156.107300,441.275848 166.760223,426.836823 
	C170.132080,422.266602 174.017242,418.075134 176.683136,414.887390 
	C182.251373,416.846802 186.623093,419.253937 191.226471,419.839264 
	C204.127182,421.479706 216.231613,417.895355 227.552414,412.017609 
	C248.917236,400.924988 266.219055,385.069946 280.106537,365.497803 
	C288.749634,353.316742 296.648285,340.861511 298.146362,325.293335 
	C299.778748,308.329285 287.551239,301.558319 273.894836,304.764008 
	C262.829895,307.361420 254.775757,315.225494 246.296936,322.309174 
M446.702087,314.690704 
	C446.576965,314.561646 446.451843,314.432556 446.760437,313.806519 
	C459.261047,302.326843 471.941223,291.035034 484.208557,279.311218 
	C495.073425,268.927643 505.720459,258.289948 516.000061,247.329575 
	C522.508240,240.390427 528.632507,232.979446 534.074646,225.183685 
	C539.493958,217.420609 542.411316,208.809860 540.489807,198.772873 
	C538.571350,188.751617 521.922974,181.398819 512.190491,180.488235 
	C513.933289,185.432388 512.730957,189.770950 509.698914,193.796829 
	C501.837280,204.235443 494.239105,214.880722 486.132294,225.124176 
	C477.803864,235.647644 469.108795,245.888321 460.366821,256.074829 
	C452.861572,264.820190 444.739319,273.050201 437.466431,281.977753 
	C424.565125,297.814240 411.475037,313.561584 399.648071,330.188538 
	C389.853912,343.957550 381.804108,358.963867 372.888916,373.364685 
	C371.105377,376.245667 369.375671,379.460907 366.809906,381.502411 
	C357.777740,388.688721 348.729736,395.956940 339.035339,402.177307 
	C331.109467,407.262970 322.568970,411.756744 312.451721,411.026581 
	C302.217865,410.287964 300.110748,404.748535 301.216705,396.952118 
	C301.706482,393.499573 303.792267,390.291290 305.001251,386.917511 
	C306.046173,384.001556 307.943329,383.953796 310.701843,384.200470 
	C316.783051,384.744293 323.079498,385.684540 328.999634,384.710205 
	C348.222137,381.546478 364.666809,372.990509 377.048798,357.468018 
	C385.241333,347.197540 390.580200,335.912811 389.993439,322.427765 
	C389.599609,313.376984 383.697754,305.149567 374.270233,302.924530 
	C364.942780,300.723083 355.667786,301.810150 347.051697,304.545471 
	C326.869934,310.952484 310.964966,323.475739 298.899963,341.081970 
	C287.860382,357.191864 280.622925,374.301788 282.014893,394.239258 
	C282.737762,404.593262 288.886932,414.937561 297.806183,417.847687 
	C312.612427,422.678741 327.016113,420.450226 339.887177,411.528046 
	C349.132111,405.119446 357.897552,398.019226 366.963226,391.162231 
	C366.976562,401.854340 365.328583,413.800171 379.894379,420.705322 
	C379.151550,417.612610 378.655487,415.662689 378.218018,413.699738 
	C377.490112,410.433594 375.482605,406.770142 376.314392,403.953339 
	C380.655365,389.253632 389.527832,377.266418 400.461945,365.885559 
	C401.017853,373.244019 401.236542,379.791809 402.067902,386.260864 
	C403.226471,395.275909 406.044922,403.898071 411.729248,411.059723 
	C419.597748,420.973267 429.612640,421.631348 443.163147,418.206268 
	C456.859955,414.744202 468.259827,407.259094 477.641174,396.710815 
	C477.830627,396.497833 477.815552,396.102875 477.860504,395.929321 
	C477.072083,394.782379 476.334015,393.708679 475.564453,392.589203 
	C473.415863,394.065582 471.957245,395.629059 470.183289,396.183289 
	C464.482361,397.964508 458.503632,401.113770 452.922913,400.596588 
	C436.636749,399.087341 424.815460,379.257172 422.738586,367.895172 
	C428.498474,367.561829 434.454071,367.875244 440.127594,366.757202 
	C453.546753,364.112885 466.516876,359.920563 478.391998,352.881683 
	C487.604370,347.421143 496.240112,341.278839 501.759766,331.762421 
	C506.954315,322.806519 506.453247,313.735779 495.961548,309.528900 
	C486.814056,305.861023 477.131409,305.911011 467.765167,307.874847 
	C460.675873,309.361237 453.957092,312.614716 446.702087,314.690704 
M707.311279,576.972900 
	C708.739685,575.936462 710.337585,575.069946 711.571777,573.838806 
	C742.248047,543.240173 772.889954,512.606934 803.515625,481.957611 
	C804.745483,480.726715 805.757812,479.278625 806.871521,477.931732 
	C807.376831,478.214661 807.882202,478.497589 808.387512,478.780518 
	C807.927063,484.813049 807.269348,490.838318 807.046936,496.879608 
	C806.577332,509.636658 806.368164,522.403076 805.989441,535.163757 
	C805.709473,544.598145 805.378418,554.031738 804.977173,563.461670 
	C804.738892,569.061768 804.420715,574.662476 803.963867,580.248596 
	C802.691406,595.811279 801.464233,611.379761 799.949402,626.919678 
	C799.028870,636.362183 797.565674,645.750793 796.448242,655.175720 
	C796.222229,657.081970 796.038818,659.179688 796.616821,660.931458 
	C797.026611,662.173401 798.632141,663.487915 799.932678,663.792114 
	C800.701477,663.971802 802.385681,662.447144 802.853149,661.346863 
	C805.842163,654.310852 808.961304,647.298218 811.383179,640.058960 
	C820.038879,614.186401 828.916626,588.372192 836.790039,562.258301 
	C844.622864,536.278748 851.821716,510.083649 858.411499,483.761017 
	C863.935120,461.697449 868.600342,439.393616 872.843628,417.043884 
	C875.643799,402.294586 877.198303,387.296600 878.994629,372.371948 
	C881.169434,354.302795 883.188721,336.210663 884.938232,318.095978 
	C886.235474,304.663300 887.083618,291.184509 887.971558,277.715729 
	C889.067444,261.090912 890.158142,244.462784 890.946533,227.821655 
	C891.542847,215.234177 891.883484,202.625214 891.947510,190.023819 
	C892.092285,161.527863 892.001282,133.030670 891.976196,104.533989 
	C891.975159,103.389542 891.667358,102.245369 891.609375,101.843094 
	C885.172119,119.254890 878.947937,137.137085 871.965454,154.718094 
	C862.748840,177.924072 849.989075,199.208847 833.437988,217.879684 
	C813.107666,240.813690 788.783813,257.815643 757.933472,263.466553 
	C746.519958,265.557220 735.012634,267.100555 723.344482,264.190186 
	C707.405273,260.214478 691.369324,256.618866 675.330872,253.058487 
	C673.412476,252.632629 671.219238,253.444504 669.153442,253.682632 
	C670.108643,255.948364 670.440552,258.966736 672.120178,260.357727 
	C683.070190,269.426056 694.317322,278.135315 705.458008,286.973755 
	C721.626953,299.801331 737.699829,312.752655 754.006287,325.402832 
	C758.900269,329.199402 762.315002,332.979187 761.114441,339.808411 
	C760.206421,344.973724 760.309509,350.319946 760.009583,355.588318 
	C759.324768,367.614319 759.271973,379.713898 757.849060,391.650848 
	C756.055054,406.700439 754.174622,421.875275 750.484131,436.530884 
	C745.174011,457.618500 738.764954,478.478577 731.784729,499.083374 
	C723.916992,522.307434 714.801453,545.106934 706.507202,568.191162 
	C705.586182,570.754456 706.484253,573.971252 707.311279,576.972900 
M702.015869,807.476562 
	C704.794434,804.034241 707.758057,800.723633 710.319397,797.126648 
	C720.925171,782.232605 731.958374,767.602356 741.785400,752.205627 
	C751.859985,736.421204 761.220459,720.124268 769.949585,703.554382 
	C778.177307,687.936279 789.460571,673.502075 790.567810,654.764954 
	C790.865112,649.733093 792.440979,644.787964 792.936707,639.754517 
	C794.419678,624.696289 795.823914,609.626343 796.947510,594.537781 
	C798.148926,578.403381 799.186890,562.251465 799.938110,546.090515 
	C800.561707,532.673523 800.689697,519.233032 800.985352,505.801788 
	C801.077393,501.622284 800.999695,497.439026 800.999695,491.643311 
	C797.266113,496.405579 792.324707,499.990448 791.312500,504.464325 
	C786.633606,525.144226 782.934204,546.050415 779.094788,566.914368 
	C772.566650,602.389648 759.871582,635.791138 744.784790,668.328003 
	C738.053650,682.844604 730.493652,696.998718 722.820251,711.049927 
	C715.908630,723.706238 708.677246,736.218201 700.968262,748.402405 
	C686.136780,771.844055 669.125122,793.573181 648.877747,812.684570 
	C637.265320,823.645508 624.414551,832.807190 610.330688,840.229431 
	C597.077637,847.213867 582.820435,851.229370 568.000854,852.848389 
	C562.324707,853.468506 556.155212,853.622742 550.764160,852.068787 
	C531.907898,846.633850 520.429626,832.753906 514.226257,815.108337 
	C508.906525,799.976013 510.268341,783.966919 512.989868,768.265930 
	C517.601990,741.657715 526.450317,716.312195 537.773010,691.983887 
	C547.226196,671.672485 560.106750,653.294434 574.553223,636.083862 
	C589.733582,617.999023 604.549683,599.603943 619.949219,581.709412 
	C629.188782,570.972839 639.034058,560.731812 648.982361,550.637939 
	C659.569702,539.895691 670.461670,529.442444 681.468933,519.127930 
	C698.474487,503.192596 715.769348,487.565643 732.729492,471.582916 
	C735.141418,469.309967 736.362793,465.773621 738.135132,462.822021 
	C737.530090,462.319336 736.924988,461.816650 736.319885,461.313934 
	C713.467041,478.751404 690.342957,495.848236 667.860901,513.751282 
	C653.900330,524.868347 640.448242,536.725708 627.603027,549.116577 
	C610.516113,565.598999 593.903992,582.609680 577.731567,599.992310 
	C565.914734,612.693359 555.040771,626.280945 543.920715,639.618591 
	C531.884094,654.055603 522.350464,670.168091 513.802002,686.812805 
	C505.011810,703.928101 497.336670,721.621826 492.994354,740.423706 
	C489.398560,755.993042 486.157104,771.731445 484.228149,787.573853 
	C482.321594,803.232605 485.834015,818.446228 491.516693,833.231995 
	C496.787079,846.945068 505.073822,858.421021 516.279846,867.512390 
	C534.418701,882.228455 556.107056,885.069397 578.343872,882.760010 
	C598.344971,880.682983 616.955383,873.189392 633.879211,862.453979 
	C658.436035,846.876709 682.329590,830.309692 702.015869,807.476562 
M98.948593,730.930786 
	C106.081635,728.202576 113.873070,726.516602 120.203163,722.517456 
	C131.478592,715.394165 142.789841,707.840698 152.413773,698.705383 
	C166.505127,685.329590 179.676620,670.868408 192.214401,656.004517 
	C205.037247,640.802673 217.013260,624.839233 228.663589,608.706238 
	C248.911423,580.667908 268.562866,552.199646 288.582123,523.995300 
	C301.323792,506.044006 313.989075,488.024628 327.281708,470.485291 
	C332.454193,463.660278 339.030212,457.818909 345.440125,452.055756 
	C347.641113,450.076904 348.585510,448.786133 347.244537,445.689484 
	C341.064667,446.702423 334.814453,447.199036 328.859253,448.795868 
	C305.055420,455.178497 287.739197,471.412170 270.989929,488.168671 
	C264.158081,495.003510 258.114258,502.694336 252.226013,510.389099 
	C241.872589,523.918884 231.868271,537.717346 221.803818,551.466309 
	C211.658386,565.325867 201.963287,579.551575 186.362091,588.189026 
	C178.226685,592.693115 169.884277,596.095032 160.388840,596.034119 
	C155.818817,596.004761 151.732590,594.081482 150.426819,590.200073 
	C149.491592,587.420044 150.828064,583.297791 152.355850,580.412354 
	C154.299896,576.740845 157.285782,573.554077 160.127594,570.436401 
	C171.896667,557.525146 184.161530,545.044250 195.505539,531.773743 
	C205.039093,520.621155 214.131622,508.985291 222.311615,496.818604 
	C227.920975,488.475433 233.016418,479.037506 230.772263,468.317566 
	C229.897751,464.140106 227.313385,459.499695 224.069946,456.793457 
	C214.454544,448.770508 202.187012,450.130737 190.690323,449.036926 
	C189.524643,448.925995 188.313248,449.295532 186.642288,449.501282 
	C196.885712,457.633789 195.282898,459.114319 190.986557,469.381165 
	C188.453140,475.435150 184.912521,481.270203 180.862793,486.451813 
	C163.867599,508.196716 146.260544,529.465881 129.400330,551.312744 
	C122.147537,560.710571 115.510170,570.637512 114.857635,583.403931 
	C114.219452,595.889771 119.154388,603.929871 130.903488,608.076721 
	C145.610474,613.267517 160.013672,611.205566 174.165390,606.264709 
	C180.854996,603.929077 187.150833,600.465576 193.671738,597.491760 
	C193.022430,598.902588 192.552536,600.327637 191.773483,601.556702 
	C176.175583,626.163696 161.058655,651.098938 144.697449,675.188843 
	C136.538086,687.202515 126.512917,698.060852 116.511337,708.668274 
	C110.780907,714.745850 103.449478,719.218628 95.032127,721.557129 
	C83.456879,724.772949 71.463829,715.639343 73.163551,704.100525 
	C73.934288,698.868286 75.639229,693.477661 78.186028,688.856506 
	C87.092186,672.696045 99.482704,659.468933 115.075882,649.649109 
	C124.129448,643.947510 133.919296,639.509338 145.325500,642.811890 
	C146.337799,643.105042 147.974686,641.240845 150.557709,639.587219 
	C143.425568,635.846130 138.075897,632.195984 132.173996,630.103455 
	C114.911690,623.983093 98.116745,625.903748 82.749664,635.794312 
	C62.191757,649.025940 48.562672,666.772888 49.041069,692.588257 
	C49.273693,705.141052 55.370472,714.663452 65.223816,722.073181 
	C74.997719,729.423279 85.969078,732.195374 98.948593,730.930786 
M164.087479,255.552338 
	C173.839645,235.493851 198.838242,229.912323 214.207260,228.585571 
	C193.413483,241.242355 177.089005,258.809204 162.324051,277.535248 
	C150.431900,292.617798 140.284790,309.152100 130.160645,325.534882 
	C115.364525,349.477844 101.210999,373.819946 86.920761,398.072754 
	C77.616791,413.863098 67.415779,428.929138 53.428364,441.022736 
	C45.903698,447.528656 37.735123,452.825439 27.131994,451.959564 
	C24.320581,451.729980 21.549538,451.006042 18.759956,450.509094 
	C18.368864,450.949738 17.977770,451.390350 17.586678,451.830963 
	C18.629896,452.996674 19.449734,454.680573 20.753233,455.242432 
	C28.254169,458.475800 36.166920,458.155792 43.863049,456.518402 
	C62.323982,452.590759 77.236961,441.872162 90.701180,429.491241 
	C101.870155,419.220947 112.407936,408.065399 121.954277,396.273071 
	C138.793213,375.472321 155.046722,354.167053 170.822968,332.545959 
	C184.372589,313.976318 196.699326,294.519440 209.964798,275.735931 
	C221.696091,259.124756 233.760895,242.735184 246.176056,226.631363 
	C249.024277,222.936874 253.579758,220.094604 257.918945,218.096909 
	C273.574860,210.889130 285.602295,200.557587 290.227722,183.289795 
	C290.555237,182.067047 289.687866,180.524200 289.376129,179.130219 
	C288.276184,179.647705 286.602844,179.871780 286.164764,180.727936 
	C281.657684,189.535767 273.718201,193.228516 264.866119,196.180496 
	C250.870178,200.847839 236.334930,197.904602 222.149460,199.872726 
	C212.540970,201.205826 202.720261,200.949326 193.072708,202.074692 
	C177.836594,203.851913 166.865067,211.383514 162.610809,226.844147 
	C159.739990,237.277161 160.891022,247.757629 161.776871,259.509460 
	C163.053040,257.594421 163.497879,256.926880 164.087479,255.552338 
M747.484314,380.955444 
	C748.963562,382.972321 750.442871,384.989227 752.445435,387.719635 
	C753.014038,380.419952 753.421143,374.086426 754.022888,367.771423 
	C754.657227,361.115082 750.592834,356.317017 747.565613,351.167725 
	C734.826538,329.498535 719.692261,309.854370 699.737244,294.179657 
	C680.841858,279.337250 659.267700,270.670563 635.685852,268.256622 
	C613.191528,265.954010 591.311401,269.474792 571.145447,280.915710 
	C550.270081,292.759094 539.068970,310.593506 538.151123,334.369293 
	C537.599304,348.661407 541.422729,362.190918 549.127258,374.473663 
	C562.097961,395.151917 578.577271,412.468719 600.701904,422.969421 
	C617.276245,430.835907 634.736877,436.983368 652.129089,442.944305 
	C679.365723,452.279297 707.393494,456.925385 736.296692,453.880981 
	C738.136719,453.687164 739.802979,451.842682 741.550049,450.766083 
	C741.313110,450.220459 741.076172,449.674866 740.839233,449.129242 
	C733.213745,447.584534 725.441406,446.547882 717.991516,444.395538 
	C699.094238,438.935913 680.019958,433.843994 661.603882,427.019714 
	C631.520081,415.871918 602.880371,401.726257 581.512268,376.708710 
	C575.799805,370.020660 571.222656,361.987640 567.756104,353.874817 
	C564.957947,347.326233 562.991211,339.606110 563.517334,332.621246 
	C564.657715,317.481781 574.691833,307.368225 587.878235,301.925201 
	C609.651367,292.937805 632.341003,290.739288 655.403381,297.723938 
	C676.625488,304.151276 693.600769,317.257904 709.397827,332.069885 
	C715.369812,337.669495 720.815735,343.950134 725.794434,350.460968 
	C733.217041,360.167786 740.013184,370.353668 747.484314,380.955444 
M396.011017,599.506958 
	C398.964203,596.216492 401.860596,592.872864 404.880310,589.644592 
	C419.971252,573.511292 435.294617,557.589478 450.121155,541.217407 
	C457.420959,533.156738 464.253998,524.586853 470.520905,515.699341 
	C478.231659,504.764191 485.322327,493.457855 488.189117,479.928284 
	C491.237000,465.543915 486.065979,454.283264 471.915131,447.612000 
	C472.315491,449.776062 473.044617,451.651550 472.894470,453.453796 
	C472.725037,455.487244 472.052765,457.604828 471.103607,459.427795 
	C461.684875,477.517944 447.392670,491.879608 434.298645,507.143951 
	C428.522461,513.877563 422.281494,520.211304 416.470245,526.916138 
	C406.479248,538.443298 396.586304,550.057556 386.789093,561.750000 
	C377.430084,572.919556 367.817963,583.916260 359.112854,595.582642 
	C351.440948,605.864441 344.412933,616.699768 337.929871,627.776001 
	C330.553894,640.377869 324.023895,653.472778 324.978058,668.841980 
	C325.533661,677.791626 329.500488,684.376404 337.699890,688.245056 
	C338.078827,688.423889 338.514099,688.483093 339.067719,688.638672 
	C339.701935,687.420105 340.263184,686.341736 340.768890,685.370117 
	C334.919586,679.803833 334.816162,677.351074 339.328979,667.496094 
	C346.210388,652.468750 357.528778,640.491638 368.341461,628.312561 
	C377.017700,618.539917 386.426208,609.417358 396.011017,599.506958 
M324.085480,637.631470 
	C326.460876,634.178711 329.165436,630.904175 331.149170,627.239441 
	C336.815765,616.770935 342.877838,606.441956 342.069092,593.747009 
	C341.538910,585.424683 335.661621,577.759644 327.656769,576.045410 
	C316.799194,573.720276 305.840546,574.489929 295.402191,577.330017 
	C278.795502,581.848450 264.322083,590.779053 251.896301,602.685425 
	C240.542419,613.564819 231.829742,626.445923 225.646469,640.887146 
	C221.864975,649.718872 219.910919,659.110168 221.090179,668.759277 
	C222.043274,676.557678 225.463120,683.312927 232.910843,686.836609 
	C240.030975,690.205200 247.958359,689.989441 255.303894,688.585205 
	C273.464783,685.113525 288.294678,674.840881 301.596924,662.641479 
	C309.677277,655.231018 316.540161,646.492981 324.085480,637.631470 
M605.436462,53.998508 
	C620.472595,57.171204 634.933716,61.930668 648.701721,68.877968 
	C661.490234,75.331017 673.206726,83.143036 684.080017,92.550255 
	C696.616699,103.396667 708.253906,114.994049 718.000610,128.357620 
	C725.884644,139.167374 733.183716,150.403702 740.368774,160.904892 
	C747.004578,158.288361 753.864502,155.583466 760.791748,152.852036 
	C760.520630,152.218445 760.271118,151.241394 759.740723,150.453278 
	C743.690125,126.601768 727.648376,102.639816 704.823730,84.553665 
	C694.017700,75.991074 682.599976,67.981300 670.652344,61.128201 
	C650.854004,49.771957 629.821960,41.305676 606.770325,38.862072 
	C593.234253,37.427177 579.766235,36.943207 566.553162,40.837559 
	C543.614075,47.598457 527.988403,63.295864 516.414917,83.336220 
	C508.564453,96.929909 504.684052,112.063881 502.069427,127.455444 
	C500.216095,138.365479 500.608490,146.292953 502.849030,154.790787 
	C503.247650,154.212540 503.665314,153.849014 503.778381,153.407486 
	C507.212280,139.995544 510.121399,126.425972 514.132324,113.190079 
	C521.491516,88.905182 533.244385,67.940445 558.237488,57.233109 
	C573.445679,50.717751 588.823303,50.787552 605.436462,53.998508 
M759.381836,237.087479 
	C762.242737,238.223083 765.058960,239.491501 767.972107,240.471848 
	C782.391785,245.324417 799.866394,237.085220 805.206177,224.712006 
	C808.800720,216.382721 810.780457,208.364944 809.107422,199.196335 
	C804.821045,175.705414 786.345398,158.677063 762.178894,158.961258 
	C743.089294,159.185760 727.810852,176.057098 730.006226,194.990005 
	C732.205322,213.955841 742.217163,227.668152 759.381836,237.087479 
M846.317200,60.984768 
	C844.984497,60.990089 843.601624,60.772816 842.332336,61.059174 
	C840.868835,61.389324 839.505737,62.164043 838.098999,62.745712 
	C839.050415,63.835140 839.792114,65.332291 840.987610,65.947205 
	C848.232971,69.673943 855.581970,73.199356 863.365234,77.022354 
	C860.261169,84.477455 857.017273,91.919388 854.118530,99.493401 
	C853.453918,101.229813 853.976746,103.420677 853.953064,105.402390 
	C856.058594,104.993126 858.458252,105.095261 860.217407,104.083679 
	C866.857422,100.265366 873.463135,96.332611 879.724731,91.934547 
	C882.788696,89.782440 885.053955,90.692711 887.515686,92.220505 
	C895.818848,97.373665 903.981934,102.759415 912.394653,107.724014 
	C914.318115,108.859131 917.026489,108.664215 919.373718,109.081436 
	C918.773315,106.733482 918.730591,104.021118 917.475769,102.100807 
	C912.138916,93.933907 906.442932,86.001678 900.757812,77.810364 
	C907.131104,71.421654 913.410767,65.244843 919.522888,58.906509 
	C920.841980,57.538548 921.557434,55.588409 922.550903,53.906422 
	C922.245300,53.472958 921.939697,53.039494 921.634094,52.606030 
	C911.889648,54.112755 902.145264,55.619476 892.687927,57.081810 
	C889.690857,45.931194 886.974304,35.389626 883.900940,24.953119 
	C883.527039,23.683464 881.278931,22.357939 879.812561,22.251219 
	C878.965393,22.189568 877.292725,24.429527 877.111572,25.783426 
	C876.198975,32.605549 875.747437,39.487793 874.948425,46.327251 
	C874.424011,50.816792 873.584473,55.269524 872.845154,60.000515 
	C869.315002,60.000515 866.165344,59.895226 863.025391,60.024151 
	C857.757812,60.240429 852.496338,60.605858 846.317200,60.984768 
M259.483398,178.924591 
	C263.125214,172.988968 267.735870,167.416611 270.136047,161.015427 
	C272.530304,154.629944 272.200439,151.583893 265.707031,147.250809 
	C259.254639,142.945084 251.785019,143.546906 245.411591,142.981232 
	C243.651154,146.331467 242.530655,149.187622 240.801620,151.609329 
	C236.731552,157.309921 232.453354,162.868118 228.111160,168.366928 
	C218.905746,180.024368 221.594879,188.780014 236.003235,190.639435 
	C243.293823,191.580292 252.197784,192.672791 256.106506,182.836761 
	C256.623596,181.535522 258.017792,180.582809 259.483398,178.924591 
z"/>
<path fill="#F26622" opacity="1.000000" stroke="none" 
	d="
M706.924988,576.928955 
	C706.484253,573.971252 705.586182,570.754456 706.507202,568.191162 
	C714.801453,545.106934 723.916992,522.307434 731.784729,499.083374 
	C738.764954,478.478577 745.174011,457.618500 750.484131,436.530884 
	C754.174622,421.875275 756.055054,406.700439 757.849060,391.650848 
	C759.271973,379.713898 759.324768,367.614319 760.009583,355.588318 
	C760.309509,350.319946 760.206421,344.973724 761.114441,339.808411 
	C762.315002,332.979187 758.900269,329.199402 754.006287,325.402832 
	C737.699829,312.752655 721.626953,299.801331 705.458008,286.973755 
	C694.317322,278.135315 683.070190,269.426056 672.120178,260.357727 
	C670.440552,258.966736 670.108643,255.948364 669.153442,253.682648 
	C671.219238,253.444504 673.412476,252.632629 675.330872,253.058487 
	C691.369324,256.618866 707.405273,260.214478 723.344482,264.190186 
	C735.012634,267.100555 746.519958,265.557220 757.933472,263.466553 
	C788.783813,257.815643 813.107666,240.813690 833.437988,217.879684 
	C849.989075,199.208847 862.748840,177.924072 871.965454,154.718094 
	C878.947937,137.137085 885.172119,119.254890 891.609375,101.843094 
	C891.667358,102.245369 891.975159,103.389542 891.976196,104.533989 
	C892.001282,133.030670 892.092285,161.527863 891.947510,190.023819 
	C891.883484,202.625214 891.542847,215.234177 890.946533,227.821655 
	C890.158142,244.462784 889.067444,261.090912 887.971558,277.715729 
	C887.083618,291.184509 886.235474,304.663300 884.938232,318.095978 
	C883.188721,336.210663 881.169434,354.302795 878.994629,372.371948 
	C877.198303,387.296600 875.643799,402.294586 872.843628,417.043884 
	C868.600342,439.393616 863.935120,461.697449 858.411499,483.761017 
	C851.821716,510.083649 844.622864,536.278748 836.790039,562.258301 
	C828.916626,588.372192 820.038879,614.186401 811.383179,640.058960 
	C808.961304,647.298218 805.842163,654.310852 802.853149,661.346863 
	C802.385681,662.447144 800.701477,663.971802 799.932678,663.792114 
	C798.632141,663.487915 797.026611,662.173401 796.616821,660.931458 
	C796.038818,659.179688 796.222229,657.081970 796.448242,655.175720 
	C797.565674,645.750793 799.028870,636.362183 799.949402,626.919678 
	C801.464233,611.379761 802.691406,595.811279 803.963867,580.248596 
	C804.420715,574.662476 804.738892,569.061768 804.977173,563.461670 
	C805.378418,554.031738 805.709473,544.598145 805.989441,535.163757 
	C806.368164,522.403076 806.577332,509.636658 807.046936,496.879608 
	C807.269348,490.838318 807.927063,484.813049 808.387512,478.780518 
	C807.882202,478.497589 807.376831,478.214661 806.871521,477.931732 
	C805.757812,479.278625 804.745483,480.726715 803.515625,481.957611 
	C772.889954,512.606934 742.248047,543.240173 711.571777,573.838806 
	C710.337585,575.069946 708.739685,575.936462 706.924988,576.928955 
z"/>
<path fill="#1AA6B2" opacity="1.000000" stroke="none" 
	d="
M701.765869,807.732178 
	C682.329590,830.309692 658.436035,846.876709 633.879211,862.453979 
	C616.955383,873.189392 598.344971,880.682983 578.343872,882.760010 
	C556.107056,885.069397 534.418701,882.228455 516.279846,867.512390 
	C505.073822,858.421021 496.787079,846.945068 491.516693,833.231995 
	C485.834015,818.446228 482.321594,803.232605 484.228149,787.573853 
	C486.157104,771.731445 489.398560,755.993042 492.994354,740.423706 
	C497.336670,721.621826 505.011810,703.928101 513.802002,686.812805 
	C522.350464,670.168091 531.884094,654.055603 543.920715,639.618591 
	C555.040771,626.280945 565.914734,612.693359 577.731567,599.992310 
	C593.903992,582.609680 610.516113,565.598999 627.603027,549.116577 
	C640.448242,536.725708 653.900330,524.868347 667.860901,513.751282 
	C690.342957,495.848236 713.467041,478.751404 736.319885,461.313934 
	C736.924988,461.816650 737.530090,462.319336 738.135132,462.822021 
	C736.362793,465.773621 735.141418,469.309967 732.729492,471.582916 
	C715.769348,487.565643 698.474487,503.192596 681.468933,519.127930 
	C670.461670,529.442444 659.569702,539.895691 648.982361,550.637939 
	C639.034058,560.731812 629.188782,570.972839 619.949219,581.709412 
	C604.549683,599.603943 589.733582,617.999023 574.553223,636.083862 
	C560.106750,653.294434 547.226196,671.672485 537.773010,691.983887 
	C526.450317,716.312195 517.601990,741.657715 512.989868,768.265930 
	C510.268341,783.966919 508.906525,799.976013 514.226257,815.108337 
	C520.429626,832.753906 531.907898,846.633850 550.764160,852.068787 
	C556.155212,853.622742 562.324707,853.468506 568.000854,852.848389 
	C582.820435,851.229370 597.077637,847.213867 610.330688,840.229431 
	C624.414551,832.807190 637.265320,823.645508 648.877747,812.684570 
	C669.125122,793.573181 686.136780,771.844055 700.968262,748.402405 
	C708.677246,736.218201 715.908630,723.706238 722.820251,711.049927 
	C730.493652,696.998718 738.053650,682.844604 744.784790,668.328003 
	C759.871582,635.791138 772.566650,602.389648 779.094788,566.914368 
	C782.934204,546.050415 786.633606,525.144226 791.312500,504.464325 
	C792.324707,499.990448 797.266113,496.405579 800.999695,491.643311 
	C800.999695,497.439026 801.077393,501.622284 800.985352,505.801788 
	C800.689697,519.233032 800.561707,532.673523 799.938110,546.090515 
	C799.186890,562.251465 798.148926,578.403381 796.947510,594.537781 
	C795.823914,609.626343 794.419678,624.696289 792.936707,639.754517 
	C792.440979,644.787964 790.865112,649.733093 790.567810,654.764954 
	C789.460571,673.502075 778.177307,687.936279 769.949585,703.554382 
	C761.220459,720.124268 751.859985,736.421204 741.785400,752.205627 
	C731.958374,767.602356 720.925171,782.232605 710.319397,797.126648 
	C707.758057,800.723633 704.794434,804.034241 701.765869,807.732178 
z"/>
<path fill="#1AA6B2" opacity="1.000000" stroke="none" 
	d="
M98.496475,730.958679 
	C85.969078,732.195374 74.997719,729.423279 65.223816,722.073181 
	C55.370472,714.663452 49.273693,705.141052 49.041069,692.588257 
	C48.562672,666.772888 62.191757,649.025940 82.749664,635.794312 
	C98.116745,625.903748 114.911690,623.983093 132.173996,630.103455 
	C138.075897,632.195984 143.425568,635.846130 150.557709,639.587219 
	C147.974686,641.240845 146.337799,643.105042 145.325500,642.811890 
	C133.919296,639.509338 124.129448,643.947510 115.075882,649.649109 
	C99.482704,659.468933 87.092186,672.696045 78.186028,688.856506 
	C75.639229,693.477661 73.934288,698.868286 73.163551,704.100525 
	C71.463829,715.639343 83.456879,724.772949 95.032127,721.557129 
	C103.449478,719.218628 110.780907,714.745850 116.511337,708.668274 
	C126.512917,698.060852 136.538086,687.202515 144.697449,675.188843 
	C161.058655,651.098938 176.175583,626.163696 191.773483,601.556702 
	C192.552536,600.327637 193.022430,598.902588 193.671738,597.491760 
	C187.150833,600.465576 180.854996,603.929077 174.165390,606.264709 
	C160.013672,611.205566 145.610474,613.267517 130.903488,608.076721 
	C119.154388,603.929871 114.219452,595.889771 114.857635,583.403931 
	C115.510170,570.637512 122.147537,560.710571 129.400330,551.312744 
	C146.260544,529.465881 163.867599,508.196716 180.862793,486.451813 
	C184.912521,481.270203 188.453140,475.435150 190.986557,469.381165 
	C195.282898,459.114319 196.885712,457.633789 186.642288,449.501282 
	C188.313248,449.295532 189.524643,448.925995 190.690323,449.036926 
	C202.187012,450.130737 214.454544,448.770508 224.069946,456.793457 
	C227.313385,459.499695 229.897751,464.140106 230.772263,468.317566 
	C233.016418,479.037506 227.920975,488.475433 222.311615,496.818604 
	C214.131622,508.985291 205.039093,520.621155 195.505539,531.773743 
	C184.161530,545.044250 171.896667,557.525146 160.127594,570.436401 
	C157.285782,573.554077 154.299896,576.740845 152.355850,580.412354 
	C150.828064,583.297791 149.491592,587.420044 150.426819,590.200073 
	C151.732590,594.081482 155.818817,596.004761 160.388840,596.034119 
	C169.884277,596.095032 178.226685,592.693115 186.362091,588.189026 
	C201.963287,579.551575 211.658386,565.325867 221.803818,551.466309 
	C231.868271,537.717346 241.872589,523.918884 252.226013,510.389099 
	C258.114258,502.694336 264.158081,495.003510 270.989929,488.168671 
	C287.739197,471.412170 305.055420,455.178497 328.859253,448.795868 
	C334.814453,447.199036 341.064667,446.702423 347.244537,445.689484 
	C348.585510,448.786133 347.641113,450.076904 345.440125,452.055756 
	C339.030212,457.818909 332.454193,463.660278 327.281708,470.485291 
	C313.989075,488.024628 301.323792,506.044006 288.582123,523.995300 
	C268.562866,552.199646 248.911423,580.667908 228.663589,608.706238 
	C217.013260,624.839233 205.037247,640.802673 192.214401,656.004517 
	C179.676620,670.868408 166.505127,685.329590 152.413773,698.705383 
	C142.789841,707.840698 131.478592,715.394165 120.203163,722.517456 
	C113.873070,726.516602 106.081635,728.202576 98.496475,730.958679 
z"/>
<path fill="#1AA6B2" opacity="1.000000" stroke="none" 
	d="
M447.073425,315.081787 
	C453.957092,312.614716 460.675873,309.361237 467.765167,307.874847 
	C477.131409,305.911011 486.814056,305.861023 495.961548,309.528900 
	C506.453247,313.735779 506.954315,322.806519 501.759766,331.762421 
	C496.240112,341.278839 487.604370,347.421143 478.391998,352.881683 
	C466.516876,359.920563 453.546753,364.112885 440.127594,366.757202 
	C434.454071,367.875244 428.498474,367.561829 422.738586,367.895172 
	C424.815460,379.257172 436.636749,399.087341 452.922913,400.596588 
	C458.503632,401.113770 464.482361,397.964508 470.183289,396.183289 
	C471.957245,395.629059 473.415863,394.065582 475.564453,392.589203 
	C476.334015,393.708679 477.072083,394.782379 477.860504,395.929321 
	C477.815552,396.102875 477.830627,396.497833 477.641174,396.710815 
	C468.259827,407.259094 456.859955,414.744202 443.163147,418.206268 
	C429.612640,421.631348 419.597748,420.973267 411.729248,411.059723 
	C406.044922,403.898071 403.226471,395.275909 402.067902,386.260864 
	C401.236542,379.791809 401.017853,373.244019 400.461945,365.885559 
	C389.527832,377.266418 380.655365,389.253632 376.314392,403.953339 
	C375.482605,406.770142 377.490112,410.433594 378.218018,413.699738 
	C378.655487,415.662689 379.151550,417.612610 379.894379,420.705322 
	C365.328583,413.800171 366.976562,401.854340 366.963226,391.162231 
	C357.897552,398.019226 349.132111,405.119446 339.887177,411.528046 
	C327.016113,420.450226 312.612427,422.678741 297.806183,417.847687 
	C288.886932,414.937561 282.737762,404.593262 282.014893,394.239258 
	C280.622925,374.301788 287.860382,357.191864 298.899963,341.081970 
	C310.964966,323.475739 326.869934,310.952484 347.051697,304.545471 
	C355.667786,301.810150 364.942780,300.723083 374.270233,302.924530 
	C383.697754,305.149567 389.599609,313.376984 389.993439,322.427765 
	C390.580200,335.912811 385.241333,347.197540 377.048798,357.468018 
	C364.666809,372.990509 348.222137,381.546478 328.999634,384.710205 
	C323.079498,385.684540 316.783051,384.744293 310.701843,384.200470 
	C307.943329,383.953796 306.046173,384.001556 305.001251,386.917511 
	C303.792267,390.291290 301.706482,393.499573 301.216705,396.952118 
	C300.110748,404.748535 302.217865,410.287964 312.451721,411.026581 
	C322.568970,411.756744 331.109467,407.262970 339.035339,402.177307 
	C348.729736,395.956940 357.777740,388.688721 366.809906,381.502411 
	C369.375671,379.460907 371.105377,376.245667 372.888916,373.364685 
	C381.804108,358.963867 389.853912,343.957550 399.648071,330.188538 
	C411.475037,313.561584 424.565125,297.814240 437.466431,281.977753 
	C444.739319,273.050201 452.861572,264.820190 460.366821,256.074829 
	C469.108795,245.888321 477.803864,235.647644 486.132294,225.124176 
	C494.239105,214.880722 501.837280,204.235443 509.698914,193.796829 
	C512.730957,189.770950 513.933289,185.432388 512.190491,180.488235 
	C521.922974,181.398819 538.571350,188.751617 540.489807,198.772873 
	C542.411316,208.809860 539.493958,217.420609 534.074646,225.183685 
	C528.632507,232.979446 522.508240,240.390427 516.000061,247.329575 
	C505.720459,258.289948 495.073425,268.927643 484.208557,279.311218 
	C471.941223,291.035034 459.261047,302.326843 446.328247,314.241608 
	C445.785950,315.046936 445.675842,315.417145 445.565704,315.787415 
	C446.068298,315.552216 446.570862,315.317017 447.073425,315.081787 
M350.011108,329.482269 
	C335.842682,343.086365 322.684204,357.544556 310.984314,375.635468 
	C314.355469,375.635468 316.620148,375.997498 318.727386,375.574768 
	C329.732666,373.367096 337.359436,365.628174 344.709351,358.180450 
	C351.627808,351.169983 357.602173,343.116638 363.267487,335.015503 
	C367.898285,328.393646 371.461578,321.025299 375.498169,313.987915 
	C375.013458,313.659088 374.528778,313.330261 374.044098,313.001434 
	C364.812073,316.230133 357.954742,323.043884 350.011108,329.482269 
M456.970795,340.539734 
	C469.995239,327.479523 473.132233,322.745117 472.260101,316.398315 
	C446.278259,321.302307 428.800598,338.877319 410.058075,356.148102 
	C418.001526,359.636383 425.138367,359.137512 431.494202,355.932037 
	C440.122864,351.580353 448.159515,346.054749 456.970795,340.539734 
z"/>
<path fill="#1AA6B2" opacity="1.000000" stroke="none" 
	d="
M164.015106,255.905838 
	C163.497879,256.926880 163.053040,257.594421 161.776871,259.509460 
	C160.891022,247.757629 159.739990,237.277161 162.610809,226.844147 
	C166.865067,211.383514 177.836594,203.851913 193.072708,202.074692 
	C202.720261,200.949326 212.540970,201.205826 222.149460,199.872726 
	C236.334930,197.904602 250.870178,200.847839 264.866119,196.180496 
	C273.718201,193.228516 281.657684,189.535767 286.164764,180.727936 
	C286.602844,179.871780 288.276184,179.647705 289.376129,179.130219 
	C289.687866,180.524200 290.555237,182.067047 290.227722,183.289795 
	C285.602295,200.557587 273.574860,210.889130 257.918945,218.096909 
	C253.579758,220.094604 249.024277,222.936874 246.176056,226.631363 
	C233.760895,242.735184 221.696091,259.124756 209.964798,275.735931 
	C196.699326,294.519440 184.372589,313.976318 170.822968,332.545959 
	C155.046722,354.167053 138.793213,375.472321 121.954277,396.273071 
	C112.407936,408.065399 101.870155,419.220947 90.701180,429.491241 
	C77.236961,441.872162 62.323982,452.590759 43.863049,456.518402 
	C36.166920,458.155792 28.254169,458.475800 20.753233,455.242432 
	C19.449734,454.680573 18.629896,452.996674 17.586678,451.830963 
	C17.977770,451.390350 18.368864,450.949738 18.759956,450.509094 
	C21.549538,451.006042 24.320581,451.729980 27.131994,451.959564 
	C37.735123,452.825439 45.903698,447.528656 53.428364,441.022736 
	C67.415779,428.929138 77.616791,413.863098 86.920761,398.072754 
	C101.210999,373.819946 115.364525,349.477844 130.160645,325.534882 
	C140.284790,309.152100 150.431900,292.617798 162.324051,277.535248 
	C177.089005,258.809204 193.413483,241.242355 214.207260,228.585571 
	C198.838242,229.912323 173.839645,235.493851 164.015106,255.905838 
z"/>
<path fill="#1AA6B2" opacity="1.000000" stroke="none" 
	d="
M747.280090,380.645569 
	C740.013184,370.353668 733.217041,360.167786 725.794434,350.460968 
	C720.815735,343.950134 715.369812,337.669495 709.397827,332.069885 
	C693.600769,317.257904 676.625488,304.151276 655.403381,297.723938 
	C632.341003,290.739288 609.651367,292.937805 587.878235,301.925201 
	C574.691833,307.368225 564.657715,317.481781 563.517334,332.621246 
	C562.991211,339.606110 564.957947,347.326233 567.756104,353.874817 
	C571.222656,361.987640 575.799805,370.020660 581.512268,376.708710 
	C602.880371,401.726257 631.520081,415.871918 661.603882,427.019714 
	C680.019958,433.843994 699.094238,438.935913 717.991516,444.395538 
	C725.441406,446.547882 733.213745,447.584534 740.839233,449.129242 
	C741.076172,449.674866 741.313110,450.220459 741.550049,450.766083 
	C739.802979,451.842682 738.136719,453.687164 736.296692,453.880981 
	C707.393494,456.925385 679.365723,452.279297 652.129089,442.944305 
	C634.736877,436.983368 617.276245,430.835907 600.701904,422.969421 
	C578.577271,412.468719 562.097961,395.151917 549.127258,374.473663 
	C541.422729,362.190918 537.599304,348.661407 538.151123,334.369293 
	C539.068970,310.593506 550.270081,292.759094 571.145447,280.915710 
	C591.311401,269.474792 613.191528,265.954010 635.685852,268.256622 
	C659.267700,270.670563 680.841858,279.337250 699.737244,294.179657 
	C719.692261,309.854370 734.826538,329.498535 747.565613,351.167725 
	C750.592834,356.317017 754.657227,361.115082 754.022888,367.771423 
	C753.421143,374.086426 753.014038,380.419952 752.445435,387.719635 
	C750.442871,384.989227 748.963562,382.972321 747.280090,380.645569 
z"/>
<path fill="#1AA6B2" opacity="1.000000" stroke="none" 
	d="
M246.674301,322.693207 
	C254.775757,315.225494 262.829895,307.361420 273.894836,304.764008 
	C287.551239,301.558319 299.778748,308.329285 298.146362,325.293335 
	C296.648285,340.861511 288.749634,353.316742 280.106537,365.497803 
	C266.219055,385.069946 248.917236,400.924988 227.552414,412.017609 
	C216.231613,417.895355 204.127182,421.479706 191.226471,419.839264 
	C186.623093,419.253937 182.251373,416.846802 176.683136,414.887390 
	C174.017242,418.075134 170.132080,422.266602 166.760223,426.836823 
	C156.107300,441.275848 145.304077,455.624908 135.253479,470.478668 
	C130.094986,478.102356 126.216064,486.629883 122.189812,494.957306 
	C121.055840,497.302673 121.492035,500.391388 121.121063,503.127350 
	C120.890755,504.825867 120.496902,506.502197 119.932091,509.474457 
	C112.523903,501.924500 110.236206,494.741913 111.443184,485.921417 
	C114.653572,462.460114 126.813210,443.016602 139.618500,424.142914 
	C154.241028,402.590790 170.206924,381.952698 185.481125,360.839294 
	C196.166977,346.068298 206.784271,331.243896 217.135162,316.238464 
	C218.675674,314.005280 218.581451,310.644440 219.522675,306.608154 
	C224.728516,305.868591 231.278900,304.410553 237.880569,304.120819 
	C248.408783,303.658691 251.418594,308.664001 247.144455,318.466461 
	C246.753113,319.364014 246.388199,320.273010 245.700500,321.670471 
	C245.341476,322.607849 245.292969,323.051483 245.244446,323.495117 
	C245.721069,323.227814 246.197678,322.960510 246.674301,322.693207 
M241.014725,373.472412 
	C248.359253,362.140533 256.090973,351.035431 262.908630,339.394958 
	C267.265442,331.956116 270.270782,323.725739 273.882019,315.850220 
	C273.187073,315.331604 272.492096,314.813019 271.797119,314.294403 
	C266.115051,318.779114 259.916199,322.750183 254.850327,327.847290 
	C241.099060,341.683441 227.597687,355.786499 214.442490,370.190430 
	C204.637344,380.926239 195.486908,392.262939 186.129807,403.403351 
	C183.313736,406.756195 184.157684,409.485504 188.402481,410.956390 
	C195.099747,413.277100 200.938721,410.457092 206.298035,407.073578 
	C219.965607,398.444702 230.550201,386.519257 241.014725,373.472412 
z"/>
<path fill="#1AA6B2" opacity="1.000000" stroke="none" 
	d="
M429.326508,662.306274 
	C418.442932,670.105408 407.823639,678.316772 396.566528,685.533203 
	C390.765533,689.251892 383.814575,690.682617 377.083832,686.555298 
	C372.556427,683.778992 370.014374,677.457397 371.303894,672.241821 
	C374.104034,660.916321 380.198059,651.265686 387.300873,642.335449 
	C399.471832,627.033081 412.236450,612.203613 424.455872,596.938721 
	C430.476898,589.416992 437.357941,582.292542 439.567383,571.803467 
	C447.349121,573.907776 456.059357,573.827698 459.950256,582.897644 
	C462.734131,589.386963 460.940002,595.759460 457.732513,601.251038 
	C453.386902,608.691162 448.421936,615.898743 442.841217,622.455872 
	C435.674255,630.876770 427.758545,638.679077 419.930817,646.513489 
	C412.686829,653.763550 405.066589,660.636230 397.748779,667.814514 
	C394.705475,670.799744 392.016815,674.146484 389.758972,678.314758 
	C392.447723,677.079041 395.434662,676.249146 397.770508,674.533081 
	C405.429016,668.906433 413.258759,663.406372 420.271667,657.031433 
	C431.794952,646.556580 443.128510,635.809937 453.799164,624.478271 
	C464.233246,613.397888 473.770844,601.470215 483.612946,589.839233 
	C484.966217,588.239929 486.167664,586.315063 486.762390,584.337341 
	C487.192108,582.908203 486.484985,581.143311 486.312683,579.525208 
	C486.174438,578.227356 486.077942,576.925049 485.907806,575.001099 
	C495.001343,575.674377 504.013489,575.232971 511.695770,580.421509 
	C519.352539,585.592896 518.977112,593.498779 513.290894,601.739563 
	C505.141022,613.550720 495.499390,624.467773 485.556030,634.869263 
	C475.084839,645.822815 463.435730,655.643738 452.468323,666.134216 
	C449.762054,668.722839 447.588257,671.907349 445.412445,674.989319 
	C444.693054,676.008423 444.736023,677.565735 444.430359,678.876953 
	C445.746460,679.013062 447.326904,679.692688 448.337677,679.201050 
	C458.354675,674.329224 468.530670,669.699524 478.145203,664.112488 
	C485.598206,659.781433 492.238220,654.068665 499.436981,649.265869 
	C500.648651,648.457520 502.862793,649.151794 504.613739,649.151794 
	C504.764343,649.678711 504.914917,650.205566 505.065521,650.732483 
	C499.046051,655.987244 493.146851,661.388184 486.979858,666.463745 
	C476.844421,674.805298 466.446716,683.125427 453.884216,687.212158 
	C448.209045,689.058411 441.237030,688.683716 435.269531,687.392822 
	C428.681732,685.967712 426.067169,677.147156 428.498596,668.997437 
	C429.007538,667.291687 429.508636,665.583618 430.312500,663.356323 
	C430.659760,662.392212 430.707886,661.948364 430.756042,661.504517 
	C430.279541,661.771790 429.803009,662.039001 429.326508,662.306274 
z"/>
<path fill="#1AA6B2" opacity="1.000000" stroke="none" 
	d="
M395.760376,599.756592 
	C386.426208,609.417358 377.017700,618.539917 368.341461,628.312561 
	C357.528778,640.491638 346.210388,652.468750 339.328979,667.496094 
	C334.816162,677.351074 334.919586,679.803833 340.768890,685.370117 
	C340.263184,686.341736 339.701935,687.420105 339.067719,688.638672 
	C338.514099,688.483093 338.078827,688.423889 337.699890,688.245056 
	C329.500488,684.376404 325.533661,677.791626 324.978058,668.841980 
	C324.023895,653.472778 330.553894,640.377869 337.929871,627.776001 
	C344.412933,616.699768 351.440948,605.864441 359.112854,595.582642 
	C367.817963,583.916260 377.430084,572.919556 386.789093,561.750000 
	C396.586304,550.057556 406.479248,538.443298 416.470245,526.916138 
	C422.281494,520.211304 428.522461,513.877563 434.298645,507.143951 
	C447.392670,491.879608 461.684875,477.517944 471.103607,459.427795 
	C472.052765,457.604828 472.725037,455.487244 472.894470,453.453796 
	C473.044617,451.651550 472.315491,449.776062 471.915131,447.612000 
	C486.065979,454.283264 491.237000,465.543915 488.189117,479.928284 
	C485.322327,493.457855 478.231659,504.764191 470.520905,515.699341 
	C464.253998,524.586853 457.420959,533.156738 450.121155,541.217407 
	C435.294617,557.589478 419.971252,573.511292 404.880310,589.644592 
	C401.860596,592.872864 398.964203,596.216492 395.760376,599.756592 
z"/>
<path fill="#1AA6B2" opacity="1.000000" stroke="none" 
	d="
M324.017700,637.991455 
	C316.540161,646.492981 309.677277,655.231018 301.596924,662.641479 
	C288.294678,674.840881 273.464783,685.113525 255.303894,688.585205 
	C247.958359,689.989441 240.030975,690.205200 232.910843,686.836609 
	C225.463120,683.312927 222.043274,676.557678 221.090179,668.759277 
	C219.910919,659.110168 221.864975,649.718872 225.646469,640.887146 
	C231.829742,626.445923 240.542419,613.564819 251.896301,602.685425 
	C264.322083,590.779053 278.795502,581.848450 295.402191,577.330017 
	C305.840546,574.489929 316.799194,573.720276 327.656769,576.045410 
	C335.661621,577.759644 341.538910,585.424683 342.069092,593.747009 
	C342.877838,606.441956 336.815765,616.770935 331.149170,627.239441 
	C329.165436,630.904175 326.460876,634.178711 324.017700,637.991455 
M309.022491,619.479431 
	C309.613739,618.530457 310.242401,617.602600 310.790344,616.629333 
	C315.019897,609.115967 319.449829,601.702942 323.334442,594.014648 
	C324.677338,591.356812 326.518799,587.311279 323.057404,585.289001 
	C321.144257,584.171265 317.690094,585.678528 314.934479,586.032715 
	C314.623749,586.072571 314.304077,586.264282 314.046051,586.461060 
	C305.569000,592.925903 296.352936,598.641541 288.811676,606.059509 
	C278.784088,615.923218 269.514618,626.693848 260.939514,637.858337 
	C252.951965,648.257935 245.077438,659.000732 241.071854,671.801025 
	C240.362976,674.066345 240.968948,676.743042 240.967743,679.229797 
	C243.794754,679.093628 247.142670,679.882812 249.347488,678.641541 
	C255.117447,675.393066 260.625214,671.555298 265.814117,667.421082 
	C282.656281,654.002380 296.279022,637.618469 309.022491,619.479431 
z"/>
<path fill="#1AA6B2" opacity="1.000000" stroke="none" 
	d="
M605.000000,53.989388 
	C588.823303,50.787552 573.445679,50.717751 558.237488,57.233109 
	C533.244385,67.940445 521.491516,88.905182 514.132324,113.190079 
	C510.121399,126.425972 507.212280,139.995544 503.778381,153.407486 
	C503.665314,153.849014 503.247650,154.212540 502.849030,154.790787 
	C500.608490,146.292953 500.216095,138.365479 502.069427,127.455444 
	C504.684052,112.063881 508.564453,96.929909 516.414917,83.336220 
	C527.988403,63.295864 543.614075,47.598457 566.553162,40.837559 
	C579.766235,36.943207 593.234253,37.427177 606.770325,38.862072 
	C629.821960,41.305676 650.854004,49.771957 670.652344,61.128201 
	C682.599976,67.981300 694.017700,75.991074 704.823730,84.553665 
	C727.648376,102.639816 743.690125,126.601768 759.740723,150.453278 
	C760.271118,151.241394 760.520630,152.218445 760.791748,152.852036 
	C753.864502,155.583466 747.004578,158.288361 740.368774,160.904892 
	C733.183716,150.403702 725.884644,139.167374 718.000610,128.357620 
	C708.253906,114.994049 696.616699,103.396667 684.080017,92.550255 
	C673.206726,83.143036 661.490234,75.331017 648.701721,68.877968 
	C634.933716,61.930668 620.472595,57.171204 605.000000,53.989388 
z"/>
<path fill="#F26622" opacity="1.000000" stroke="none" 
	d="
M758.998535,237.042679 
	C742.217163,227.668152 732.205322,213.955841 730.006226,194.990005 
	C727.810852,176.057098 743.089294,159.185760 762.178894,158.961258 
	C786.345398,158.677063 804.821045,175.705414 809.107422,199.196335 
	C810.780457,208.364944 808.800720,216.382721 805.206177,224.712006 
	C799.866394,237.085220 782.391785,245.324417 767.972107,240.471848 
	C765.058960,239.491501 762.242737,238.223083 758.998535,237.042679 
z"/>
<path fill="#F26622" opacity="1.000000" stroke="none" 
	d="
M846.774780,60.946648 
	C852.496338,60.605858 857.757812,60.240429 863.025391,60.024151 
	C866.165344,59.895226 869.315002,60.000515 872.845154,60.000515 
	C873.584473,55.269524 874.424011,50.816792 874.948425,46.327251 
	C875.747437,39.487793 876.198975,32.605549 877.111572,25.783426 
	C877.292725,24.429527 878.965393,22.189568 879.812561,22.251219 
	C881.278931,22.357939 883.527039,23.683464 883.900940,24.953119 
	C886.974304,35.389626 889.690857,45.931194 892.687927,57.081810 
	C902.145264,55.619476 911.889648,54.112755 921.634094,52.606030 
	C921.939697,53.039494 922.245300,53.472958 922.550903,53.906422 
	C921.557434,55.588409 920.841980,57.538548 919.522888,58.906509 
	C913.410767,65.244843 907.131104,71.421654 900.757812,77.810364 
	C906.442932,86.001678 912.138916,93.933907 917.475769,102.100807 
	C918.730591,104.021118 918.773315,106.733482 919.373657,109.081436 
	C917.026489,108.664215 914.318115,108.859131 912.394653,107.724014 
	C903.981934,102.759415 895.818848,97.373665 887.515686,92.220505 
	C885.053955,90.692711 882.788696,89.782440 879.724731,91.934547 
	C873.463135,96.332611 866.857422,100.265366 860.217407,104.083679 
	C858.458252,105.095261 856.058594,104.993126 853.953064,105.402390 
	C853.976746,103.420677 853.453918,101.229813 854.118530,99.493401 
	C857.017273,91.919388 860.261169,84.477455 863.365234,77.022354 
	C855.581970,73.199356 848.232971,69.673943 840.987610,65.947205 
	C839.792114,65.332291 839.050415,63.835140 838.098999,62.745705 
	C839.505737,62.164043 840.868835,61.389324 842.332336,61.059174 
	C843.601624,60.772816 844.984497,60.990089 846.774780,60.946648 
z"/>
<path fill="#1AA6B2" opacity="1.000000" stroke="none" 
	d="
M259.244568,179.196625 
	C258.017792,180.582809 256.623596,181.535522 256.106506,182.836761 
	C252.197784,192.672791 243.293823,191.580292 236.003235,190.639435 
	C221.594879,188.780014 218.905746,180.024368 228.111160,168.366928 
	C232.453354,162.868118 236.731552,157.309921 240.801620,151.609329 
	C242.530655,149.187622 243.651154,146.331467 245.411591,142.981232 
	C251.785019,143.546906 259.254639,142.945084 265.707031,147.250809 
	C272.200439,151.583893 272.530304,154.629944 270.136047,161.015427 
	C267.735870,167.416611 263.125214,172.988968 259.244568,179.196625 
z"/>
<path fill="#000000" opacity="1.000000" stroke="none" 
	d="
M350.264984,329.233215 
	C357.954742,323.043884 364.812073,316.230133 374.044098,313.001434 
	C374.528778,313.330261 375.013458,313.659088 375.498169,313.987915 
	C371.461578,321.025299 367.898285,328.393646 363.267487,335.015503 
	C357.602173,343.116638 351.627808,351.169983 344.709351,358.180450 
	C337.359436,365.628174 329.732666,373.367096 318.727386,375.574768 
	C316.620148,375.997498 314.355469,375.635468 310.984314,375.635468 
	C322.684204,357.544556 335.842682,343.086365 350.264984,329.233215 
z"/>
<path fill="#000000" opacity="1.000000" stroke="none" 
	d="
M456.710449,340.786163 
	C448.159515,346.054749 440.122864,351.580353 431.494202,355.932037 
	C425.138367,359.137512 418.001526,359.636383 410.058075,356.148102 
	C428.800598,338.877319 446.278259,321.302307 472.260101,316.398315 
	C473.132233,322.745117 469.995239,327.479523 456.710449,340.786163 
z"/>
<path fill="#000000" opacity="1.000000" stroke="none" 
	d="
M446.887756,314.886261 
	C446.570862,315.317017 446.068298,315.552216 445.565704,315.787415 
	C445.675842,315.417145 445.785950,315.046936 446.111389,314.490082 
	C446.451843,314.432556 446.576965,314.561646 446.887756,314.886261 
z"/>
<path fill="#000000" opacity="1.000000" stroke="none" 
	d="
M240.761124,373.733582 
	C230.550201,386.519257 219.965607,398.444702 206.298035,407.073578 
	C200.938721,410.457092 195.099747,413.277100 188.402481,410.956390 
	C184.157684,409.485504 183.313736,406.756195 186.129807,403.403351 
	C195.486908,392.262939 204.637344,380.926239 214.442490,370.190430 
	C227.597687,355.786499 241.099060,341.683441 254.850327,327.847290 
	C259.916199,322.750183 266.115051,318.779114 271.797119,314.294403 
	C272.492096,314.813019 273.187073,315.331604 273.882019,315.850220 
	C270.270782,323.725739 267.265442,331.956116 262.908630,339.394958 
	C256.090973,351.035431 248.359253,362.140533 240.761124,373.733582 
z"/>
<path fill="#000000" opacity="1.000000" stroke="none" 
	d="
M246.485626,322.501190 
	C246.197678,322.960510 245.721069,323.227814 245.244446,323.495117 
	C245.292969,323.051483 245.341476,322.607849 245.652771,322.046631 
	C246.042664,322.055756 246.169800,322.182465 246.485626,322.501190 
z"/>
<path fill="#000000" opacity="1.000000" stroke="none" 
	d="
M429.515289,662.498901 
	C429.803009,662.039001 430.279541,661.771790 430.756042,661.504517 
	C430.707886,661.948364 430.659760,662.392212 430.348877,662.954224 
	C429.958740,662.945435 429.831421,662.818481 429.515289,662.498901 
z"/>
<path fill="#000000" opacity="1.000000" stroke="none" 
	d="
M308.786621,619.761963 
	C296.279022,637.618469 282.656281,654.002380 265.814117,667.421082 
	C260.625214,671.555298 255.117447,675.393066 249.347488,678.641541 
	C247.142670,679.882812 243.794754,679.093628 240.967743,679.229797 
	C240.968948,676.743042 240.362976,674.066345 241.071854,671.801025 
	C245.077438,659.000732 252.951965,648.257935 260.939514,637.858337 
	C269.514618,626.693848 278.784088,615.923218 288.811676,606.059509 
	C296.352936,598.641541 305.569000,592.925903 314.046051,586.461060 
	C314.304077,586.264282 314.623749,586.072571 314.934479,586.032715 
	C317.690094,585.678528 321.144257,584.171265 323.057404,585.289001 
	C326.518799,587.311279 324.677338,591.356812 323.334442,594.014648 
	C319.449829,601.702942 315.019897,609.115967 310.790344,616.629333 
	C310.242401,617.602600 309.613739,618.530457 308.786621,619.761963 
z"/>
</svg>